<mxfile host="app.diagrams.net" modified="2021-09-05T08:20:04.526Z" agent="5.0 (Windows)" etag="zSR-GoWS9gl53xTdXKTG" version="15.0.6" type="github">
  <diagram id="31b32b95-0358-9bc7-6ba0-a27c054ed1a7" name="Page-1">
    <mxGraphModel dx="2062" dy="1122" grid="1" gridSize="10" guides="1" tooltips="1" connect="1" arrows="1" fold="1" page="1" pageScale="1" pageWidth="827" pageHeight="1169" background="none" math="0" shadow="0">
      <root>
        <mxCell id="0" />
        <mxCell id="1" parent="0" />
        <mxCell id="Fddl8qkM5L3DqnkjX7zU-95" value="Stakeholders / Ministries" style="text;html=1;align=left;verticalAlign=top;fontColor=#4277BB;shadow=0;dashed=0;strokeColor=none;fillColor=none;labelBackgroundColor=none;fontStyle=1;fontSize=16;spacingLeft=5;" parent="1" vertex="1">
          <mxGeometry x="10" y="710" width="170" height="30" as="geometry" />
        </mxCell>
        <mxCell id="Fddl8qkM5L3DqnkjX7zU-109" style="edgeStyle=orthogonalEdgeStyle;rounded=0;html=1;labelBackgroundColor=#ffffff;startArrow=classic;startFill=1;startSize=4;endArrow=classic;endFill=1;endSize=4;jettySize=auto;orthogonalLoop=1;strokeColor=#4378BB;strokeWidth=2;fontSize=19;fontColor=#CC99FF;exitX=1;exitY=0.25;exitDx=0;exitDy=0;" parent="1" source="Fddl8qkM5L3DqnkjX7zU-107" edge="1">
          <mxGeometry relative="1" as="geometry">
            <Array as="points">
              <mxPoint x="165" y="525" />
              <mxPoint x="165" y="540" />
              <mxPoint x="205" y="540" />
              <mxPoint x="205" y="356" />
            </Array>
            <mxPoint x="165" y="450" as="sourcePoint" />
            <mxPoint x="231.71572875253787" y="356" as="targetPoint" />
          </mxGeometry>
        </mxCell>
        <mxCell id="Fddl8qkM5L3DqnkjX7zU-110" style="edgeStyle=orthogonalEdgeStyle;rounded=0;html=1;labelBackgroundColor=#ffffff;startArrow=classic;startFill=1;startSize=4;endArrow=classic;endFill=1;endSize=4;jettySize=auto;orthogonalLoop=1;strokeColor=#4378BB;strokeWidth=2;fontSize=19;fontColor=#CC99FF;exitX=1;exitY=0.25;exitDx=0;exitDy=0;" parent="1" edge="1">
          <mxGeometry relative="1" as="geometry">
            <Array as="points">
              <mxPoint x="175" y="639" />
              <mxPoint x="175" y="654" />
              <mxPoint x="215" y="654" />
              <mxPoint x="215" y="360" />
              <mxPoint x="242" y="360" />
            </Array>
            <mxPoint x="161.8328157299975" y="638.5835921350013" as="sourcePoint" />
            <mxPoint x="242" y="360" as="targetPoint" />
          </mxGeometry>
        </mxCell>
        <mxCell id="FfRSLQZAVP2g_bOx8CqB-140" value="IBM Datapower Gateway" style="text;html=1;strokeColor=none;fillColor=none;align=center;verticalAlign=middle;whiteSpace=wrap;rounded=0;" parent="1" vertex="1">
          <mxGeometry x="300" y="390" width="90" height="20" as="geometry" />
        </mxCell>
        <mxCell id="FfRSLQZAVP2g_bOx8CqB-164" value="" style="endArrow=classic;html=1;" parent="1" edge="1">
          <mxGeometry width="50" height="50" relative="1" as="geometry">
            <mxPoint x="1110" y="240" as="sourcePoint" />
            <mxPoint x="1280" y="190" as="targetPoint" />
          </mxGeometry>
        </mxCell>
        <mxCell id="FfRSLQZAVP2g_bOx8CqB-166" value="Event Streaming " style="shape=mxgraph.ibm.box;prType=enterprise;fontStyle=0;verticalAlign=top;align=left;spacingLeft=32;spacingTop=4;fillColor=none;rounded=0;whiteSpace=wrap;html=1;strokeColor=#4376BB;strokeWidth=3;dashed=0;container=1;spacing=-4;collapsible=0;expand=0;recursiveResize=0;" parent="1" vertex="1">
          <mxGeometry x="970" y="320" width="200" height="250" as="geometry" />
        </mxCell>
        <mxCell id="FfRSLQZAVP2g_bOx8CqB-168" value="&lt;h1&gt;&lt;font style=&quot;font-size: 22px&quot;&gt;Notification Hub&lt;/font&gt;&lt;br&gt;&lt;/h1&gt;&lt;p&gt;Collects the &#39;Recipients by using Middleware Services and Hukoomi and Prepares the &#39;Push Notification&#39; and SMS Requests&lt;br&gt;&lt;/p&gt;" style="text;html=1;strokeColor=none;fillColor=none;spacing=5;spacingTop=-20;whiteSpace=wrap;overflow=hidden;rounded=0;" parent="1" vertex="1">
          <mxGeometry x="980" y="430" width="190" height="120" as="geometry" />
        </mxCell>
        <mxCell id="FfRSLQZAVP2g_bOx8CqB-170" value="" style="endArrow=classic;html=1;entryX=0.155;entryY=0.004;entryDx=0;entryDy=0;entryPerimeter=0;" parent="1" target="FfRSLQZAVP2g_bOx8CqB-166" edge="1">
          <mxGeometry width="50" height="50" relative="1" as="geometry">
            <mxPoint x="940" y="300" as="sourcePoint" />
            <mxPoint x="990" y="250" as="targetPoint" />
            <Array as="points">
              <mxPoint x="990" y="300" />
            </Array>
          </mxGeometry>
        </mxCell>
        <mxCell id="FfRSLQZAVP2g_bOx8CqB-172" value="&lt;b&gt;DMZ&lt;/b&gt;" style="rounded=0;whiteSpace=wrap;html=1;fillColor=#f8cecc;strokeColor=#b85450;dashed=1;" parent="1" vertex="1">
          <mxGeometry x="230" y="60" width="210" height="60" as="geometry" />
        </mxCell>
        <mxCell id="FfRSLQZAVP2g_bOx8CqB-173" value="&lt;b&gt;INTERNAL ZONE&lt;/b&gt;" style="rounded=0;whiteSpace=wrap;html=1;fillColor=#f8cecc;strokeColor=#b85450;dashed=1;" parent="1" vertex="1">
          <mxGeometry x="600" y="60" width="1000" height="60" as="geometry" />
        </mxCell>
        <mxCell id="FfRSLQZAVP2g_bOx8CqB-178" value="" style="endArrow=classic;html=1;" parent="1" edge="1">
          <mxGeometry width="50" height="50" relative="1" as="geometry">
            <mxPoint x="800" y="360" as="sourcePoint" />
            <mxPoint x="850" y="310" as="targetPoint" />
          </mxGeometry>
        </mxCell>
        <mxCell id="FfRSLQZAVP2g_bOx8CqB-179" value="" style="endArrow=classic;html=1;" parent="1" edge="1">
          <mxGeometry width="50" height="50" relative="1" as="geometry">
            <mxPoint x="800" y="360" as="sourcePoint" />
            <mxPoint x="850" y="310" as="targetPoint" />
          </mxGeometry>
        </mxCell>
        <mxCell id="2" value="sssssssss" style="swimlane;shadow=0;strokeColor=#4277BB;fillColor=#ffffff;fontColor=#4277BB;align=right;startSize=0;collapsible=0;strokeWidth=3;" parent="1" vertex="1">
          <mxGeometry x="14" y="30" width="1640" height="930" as="geometry" />
        </mxCell>
        <mxCell id="3" value="&lt;div&gt;PUBLIC NETWORK&lt;/div&gt;&lt;div&gt;&lt;br&gt;&lt;/div&gt;" style="text;html=1;align=left;verticalAlign=top;fontColor=#4277BB;shadow=0;dashed=0;strokeColor=none;fillColor=none;labelBackgroundColor=none;fontStyle=1;fontSize=16;spacingLeft=5;" parent="2" vertex="1">
          <mxGeometry width="170" height="30" as="geometry" />
        </mxCell>
        <mxCell id="4" value="" style="line;strokeWidth=3;direction=south;html=1;shadow=0;labelBackgroundColor=none;fillColor=none;gradientColor=none;fontSize=12;fontColor=#4277BB;align=right;strokeColor=#4277BB;" parent="2" vertex="1">
          <mxGeometry x="205" width="10" height="250" as="geometry" />
        </mxCell>
        <mxCell id="5" value="MOTC INTERNAL NETWORK" style="text;html=1;align=left;verticalAlign=top;fontColor=#4277BB;shadow=0;dashed=0;strokeColor=none;fillColor=none;labelBackgroundColor=none;fontStyle=1;fontSize=16;spacingLeft=5;" parent="2" vertex="1">
          <mxGeometry x="210" width="240" height="35" as="geometry" />
        </mxCell>
        <mxCell id="17" value="" style="swimlane;shadow=0;strokeColor=#4277BB;fillColor=#ffffff;fontColor=#4277BB;align=right;startSize=0;collapsible=0;strokeWidth=3;" parent="2" vertex="1">
          <mxGeometry x="620" y="780" width="570" height="90" as="geometry" />
        </mxCell>
        <mxCell id="18" value="&lt;b&gt;Infrasture Security&lt;/b&gt;" style="aspect=fixed;perimeter=ellipsePerimeter;html=1;align=left;shadow=0;dashed=0;image;image=img/lib/ibm/blockchain/certificate_authority.svg;labelBackgroundColor=#ffffff;strokeColor=#666666;strokeWidth=3;fillColor=#C2952D;gradientColor=none;fontSize=12;fontColor=#4277BB;labelPosition=right;verticalLabelPosition=middle;verticalAlign=middle;" parent="17" vertex="1">
          <mxGeometry x="34" y="15" width="60" height="60" as="geometry" />
        </mxCell>
        <mxCell id="19" style="edgeStyle=orthogonalEdgeStyle;rounded=0;comic=0;html=1;exitX=1;exitY=0.5;entryX=0;entryY=0.25;startArrow=classic;startFill=1;endArrow=classic;endFill=1;jettySize=auto;orthogonalLoop=1;strokeColor=#4378BB;strokeWidth=2;fontFamily=Helvetica;fontSize=19;fontColor=#CC99FF;endSize=4;startSize=4;" parent="2" source="20" edge="1">
          <mxGeometry relative="1" as="geometry">
            <Array as="points">
              <mxPoint x="155" y="106" />
              <mxPoint x="155" y="283" />
              <mxPoint x="180" y="283" />
            </Array>
            <mxPoint x="183.1671842700025" y="282.58359213500125" as="targetPoint" />
          </mxGeometry>
        </mxCell>
        <mxCell id="Fddl8qkM5L3DqnkjX7zU-97" value="" style="edgeStyle=orthogonalEdgeStyle;rounded=0;orthogonalLoop=1;jettySize=auto;html=1;" parent="2" source="20" target="22" edge="1">
          <mxGeometry relative="1" as="geometry" />
        </mxCell>
        <mxCell id="20" value="Authorized Users" style="aspect=fixed;perimeter=ellipsePerimeter;html=1;align=center;shadow=0;dashed=0;image;image=img/lib/ibm/users/user.svg;labelBackgroundColor=#ffffff;strokeColor=#666666;strokeWidth=3;fillColor=#C2952D;gradientColor=none;fontSize=12;fontColor=#4277BB;" parent="2" vertex="1">
          <mxGeometry x="55" y="76" width="60" height="60" as="geometry" />
        </mxCell>
        <mxCell id="21" style="edgeStyle=orthogonalEdgeStyle;rounded=0;html=1;labelBackgroundColor=#ffffff;startArrow=classic;startFill=1;startSize=4;endArrow=classic;endFill=1;endSize=4;jettySize=auto;orthogonalLoop=1;strokeColor=#4378BB;strokeWidth=2;fontSize=19;fontColor=#CC99FF;" parent="2" source="22" edge="1">
          <mxGeometry relative="1" as="geometry">
            <Array as="points">
              <mxPoint x="135" y="216" />
              <mxPoint x="135" y="296" />
            </Array>
            <mxPoint x="180" y="296" as="targetPoint" />
          </mxGeometry>
        </mxCell>
        <mxCell id="22" value="End Users" style="aspect=fixed;perimeter=ellipsePerimeter;html=1;align=center;shadow=0;dashed=0;image;image=img/lib/ibm/users/device.svg;labelBackgroundColor=#ffffff;strokeColor=#666666;strokeWidth=3;fillColor=#C2952D;gradientColor=none;fontSize=12;fontColor=#4277BB;" parent="2" vertex="1">
          <mxGeometry x="55" y="186" width="60" height="60" as="geometry" />
        </mxCell>
        <mxCell id="23" style="edgeStyle=orthogonalEdgeStyle;rounded=0;html=1;labelBackgroundColor=#ffffff;startArrow=classic;startFill=1;startSize=4;endArrow=classic;endFill=1;endSize=4;jettySize=auto;orthogonalLoop=1;strokeColor=#4378BB;strokeWidth=2;fontSize=19;fontColor=#CC99FF;" parent="2" edge="1">
          <mxGeometry relative="1" as="geometry">
            <Array as="points">
              <mxPoint x="155" y="400" />
              <mxPoint x="155" y="306" />
            </Array>
            <mxPoint x="115" y="400" as="sourcePoint" />
            <mxPoint x="181.71572875253787" y="306" as="targetPoint" />
          </mxGeometry>
        </mxCell>
        <mxCell id="25" style="edgeStyle=orthogonalEdgeStyle;rounded=0;html=1;labelBackgroundColor=#ffffff;startArrow=classic;startFill=1;startSize=4;endArrow=classic;endFill=1;endSize=4;jettySize=auto;orthogonalLoop=1;strokeColor=#4378BB;strokeWidth=2;fontSize=19;fontColor=#CC99FF;" parent="2" edge="1">
          <mxGeometry relative="1" as="geometry">
            <mxPoint x="240" y="296" as="sourcePoint" />
            <mxPoint x="295" y="296" as="targetPoint" />
          </mxGeometry>
        </mxCell>
        <mxCell id="35" value="" style="swimlane;shadow=0;strokeColor=#4277BB;fillColor=#ffffff;fontColor=#4277BB;align=right;startSize=0;collapsible=0;strokeWidth=3;" parent="2" vertex="1">
          <mxGeometry x="620" y="160" width="570" height="420" as="geometry" />
        </mxCell>
        <mxCell id="52" value="&lt;b&gt;MOTC MIDDLEWARE LAYER&lt;/b&gt;" style="text;html=1;align=left;verticalAlign=top;fontColor=#4277BB;shadow=0;dashed=0;strokeColor=none;fillColor=none;labelBackgroundColor=none;fontStyle=0;fontSize=14;spacingLeft=5;" parent="35" vertex="1">
          <mxGeometry x="2" width="231" height="24" as="geometry" />
        </mxCell>
        <mxCell id="84" style="edgeStyle=orthogonalEdgeStyle;rounded=0;html=1;entryX=0;entryY=0.5;labelBackgroundColor=#ffffff;startArrow=classic;startFill=1;startSize=4;endArrow=classic;endFill=1;endSize=4;jettySize=auto;orthogonalLoop=1;strokeColor=#EEC11B;strokeWidth=2;fontSize=14;fontColor=#4277BB;" parent="35" target="68" edge="1">
          <mxGeometry relative="1" as="geometry">
            <mxPoint x="125" y="80" as="sourcePoint" />
          </mxGeometry>
        </mxCell>
        <mxCell id="85" style="edgeStyle=orthogonalEdgeStyle;rounded=0;html=1;entryX=0;entryY=0.5;labelBackgroundColor=#ffffff;startArrow=classic;startFill=1;startSize=4;endArrow=classic;endFill=1;endSize=4;jettySize=auto;orthogonalLoop=1;strokeColor=#9673a6;strokeWidth=2;fontSize=14;fontColor=#4277BB;fillColor=#e1d5e7;" parent="35" source="68" target="70" edge="1">
          <mxGeometry relative="1" as="geometry" />
        </mxCell>
        <mxCell id="93" style="edgeStyle=orthogonalEdgeStyle;rounded=0;html=1;entryX=0.5;entryY=0;labelBackgroundColor=#ffffff;startArrow=classic;startFill=1;startSize=4;endArrow=classic;endFill=1;endSize=4;jettySize=auto;orthogonalLoop=1;strokeColor=#EEC11B;strokeWidth=2;fontSize=14;fontColor=#4277BB;" parent="35" source="68" target="74" edge="1">
          <mxGeometry relative="1" as="geometry" />
        </mxCell>
        <mxCell id="68" value="" style="swimlane;shadow=0;strokeColor=#4277BB;fillColor=#ffffff;fontColor=#4277BB;align=right;startSize=0;collapsible=0;strokeWidth=3;" parent="35" vertex="1">
          <mxGeometry x="209" y="40" width="100" height="80" as="geometry" />
        </mxCell>
        <mxCell id="FfRSLQZAVP2g_bOx8CqB-156" value="" style="aspect=fixed;perimeter=ellipsePerimeter;html=1;align=center;shadow=0;dashed=0;fontColor=#4277BB;labelBackgroundColor=#ffffff;fontSize=12;spacingTop=3;image;image=img/lib/ibm/applications/application_logic.svg;" parent="68" vertex="1">
          <mxGeometry x="11" y="10" width="60" height="60" as="geometry" />
        </mxCell>
        <mxCell id="70" value="" style="swimlane;shadow=0;strokeColor=#4277BB;fillColor=#ffffff;fontColor=#4277BB;align=right;startSize=0;collapsible=0;strokeWidth=3;" parent="35" vertex="1">
          <mxGeometry x="386" y="40" width="100" height="80" as="geometry" />
        </mxCell>
        <mxCell id="FfRSLQZAVP2g_bOx8CqB-162" value="" style="aspect=fixed;perimeter=ellipsePerimeter;html=1;align=center;shadow=0;dashed=0;fontColor=#4277BB;labelBackgroundColor=#ffffff;fontSize=12;spacingTop=3;image;image=img/lib/ibm/management/provider_cloud_portal_service.svg;" parent="70" vertex="1">
          <mxGeometry x="20" y="10" width="60" height="60" as="geometry" />
        </mxCell>
        <mxCell id="86" style="edgeStyle=orthogonalEdgeStyle;rounded=0;html=1;entryX=0;entryY=0.5;labelBackgroundColor=#ffffff;startArrow=classic;startFill=1;startSize=4;endArrow=classic;endFill=1;endSize=4;jettySize=auto;orthogonalLoop=1;strokeColor=#EEC11B;strokeWidth=2;fontSize=14;fontColor=#4277BB;" parent="35" target="74" edge="1">
          <mxGeometry relative="1" as="geometry">
            <mxPoint x="125" y="200" as="sourcePoint" />
          </mxGeometry>
        </mxCell>
        <mxCell id="92" style="edgeStyle=orthogonalEdgeStyle;rounded=0;html=1;entryX=0.5;entryY=0;labelBackgroundColor=#ffffff;startArrow=classic;startFill=1;startSize=4;endArrow=classic;endFill=1;endSize=4;jettySize=auto;orthogonalLoop=1;strokeColor=#EEC11B;strokeWidth=2;fontSize=14;fontColor=#4277BB;" parent="35" source="74" target="80" edge="1">
          <mxGeometry relative="1" as="geometry" />
        </mxCell>
        <mxCell id="74" value="" style="swimlane;shadow=0;strokeColor=#4277BB;fillColor=#ffffff;fontColor=#4277BB;align=right;startSize=0;collapsible=0;strokeWidth=3;" parent="35" vertex="1">
          <mxGeometry x="208.99999999999977" y="160" width="100" height="80" as="geometry" />
        </mxCell>
        <mxCell id="FfRSLQZAVP2g_bOx8CqB-155" value="" style="aspect=fixed;perimeter=ellipsePerimeter;html=1;align=center;shadow=0;dashed=0;fontColor=#4277BB;labelBackgroundColor=#ffffff;fontSize=12;spacingTop=3;image;image=img/lib/ibm/applications/application_logic.svg;" parent="74" vertex="1">
          <mxGeometry x="11.000000000000227" y="10" width="60" height="60" as="geometry" />
        </mxCell>
        <mxCell id="88" style="edgeStyle=orthogonalEdgeStyle;rounded=0;html=1;entryX=0;entryY=0.5;labelBackgroundColor=#ffffff;startArrow=classic;startFill=1;startSize=4;endArrow=classic;endFill=1;endSize=4;jettySize=auto;orthogonalLoop=1;strokeColor=#EEC11B;strokeWidth=2;fontSize=14;fontColor=#4277BB;" parent="35" target="80" edge="1">
          <mxGeometry relative="1" as="geometry">
            <mxPoint x="125" y="320" as="sourcePoint" />
          </mxGeometry>
        </mxCell>
        <mxCell id="80" value="" style="swimlane;shadow=0;strokeColor=#4277BB;fillColor=#ffffff;fontColor=#4277BB;align=right;startSize=0;collapsible=0;strokeWidth=3;" parent="35" vertex="1">
          <mxGeometry x="208.99999999999977" y="280" width="100" height="80" as="geometry" />
        </mxCell>
        <mxCell id="FfRSLQZAVP2g_bOx8CqB-154" value="" style="aspect=fixed;perimeter=ellipsePerimeter;html=1;align=center;shadow=0;dashed=0;fontColor=#4277BB;labelBackgroundColor=#ffffff;fontSize=12;spacingTop=3;image;image=img/lib/ibm/applications/application_logic.svg;" parent="80" vertex="1">
          <mxGeometry x="11.000000000000227" y="10" width="60" height="60" as="geometry" />
        </mxCell>
        <mxCell id="FfRSLQZAVP2g_bOx8CqB-144" value="" style="aspect=fixed;perimeter=ellipsePerimeter;html=1;align=center;shadow=0;dashed=0;fontColor=#4277BB;labelBackgroundColor=#ffffff;fontSize=12;spacingTop=3;image;image=img/lib/ibm/infrastructure/channels.svg;" parent="35" vertex="1">
          <mxGeometry x="20" y="80" width="40" height="40" as="geometry" />
        </mxCell>
        <mxCell id="FfRSLQZAVP2g_bOx8CqB-145" value="" style="aspect=fixed;perimeter=ellipsePerimeter;html=1;align=center;shadow=0;dashed=0;fontColor=#4277BB;labelBackgroundColor=#ffffff;fontSize=12;spacingTop=3;image;image=img/lib/ibm/infrastructure/channels.svg;" parent="35" vertex="1">
          <mxGeometry x="20" y="140" width="40" height="40" as="geometry" />
        </mxCell>
        <mxCell id="FfRSLQZAVP2g_bOx8CqB-147" value="" style="aspect=fixed;perimeter=ellipsePerimeter;html=1;align=center;shadow=0;dashed=0;fontColor=#4277BB;labelBackgroundColor=#ffffff;fontSize=12;spacingTop=3;image;image=img/lib/ibm/infrastructure/channels.svg;" parent="35" vertex="1">
          <mxGeometry x="20" y="260" width="40" height="40" as="geometry" />
        </mxCell>
        <mxCell id="FfRSLQZAVP2g_bOx8CqB-146" value="" style="aspect=fixed;perimeter=ellipsePerimeter;html=1;align=center;shadow=0;dashed=0;fontColor=#4277BB;labelBackgroundColor=#ffffff;fontSize=12;spacingTop=3;image;image=img/lib/ibm/infrastructure/channels.svg;" parent="35" vertex="1">
          <mxGeometry x="20" y="200" width="40" height="40" as="geometry" />
        </mxCell>
        <mxCell id="FfRSLQZAVP2g_bOx8CqB-143" value="MQ Layer" style="shape=mxgraph.ibm.box;prType=classic;fontStyle=0;verticalAlign=top;align=left;spacingLeft=32;spacingTop=4;fillColor=none;rounded=0;whiteSpace=wrap;html=1;strokeColor=#4376BB;strokeWidth=2;dashed=0;container=1;spacing=-4;collapsible=0;expand=0;recursiveResize=0;" parent="35" vertex="1">
          <mxGeometry x="12" y="35" width="125" height="330" as="geometry" />
        </mxCell>
        <mxCell id="FfRSLQZAVP2g_bOx8CqB-148" value="Message Queue and RDQM" style="text;html=1;strokeColor=none;fillColor=none;align=center;verticalAlign=middle;whiteSpace=wrap;rounded=0;" parent="FfRSLQZAVP2g_bOx8CqB-143" vertex="1">
          <mxGeometry x="8" y="285" width="102" height="25" as="geometry" />
        </mxCell>
        <mxCell id="FfRSLQZAVP2g_bOx8CqB-149" value="" style="aspect=fixed;perimeter=ellipsePerimeter;html=1;align=center;shadow=0;dashed=0;fontColor=#4277BB;labelBackgroundColor=#ffffff;fontSize=12;spacingTop=3;image;image=img/lib/ibm/infrastructure/enterprise_messaging.svg;" parent="FfRSLQZAVP2g_bOx8CqB-143" vertex="1">
          <mxGeometry x="50" y="45" width="35" height="35" as="geometry" />
        </mxCell>
        <mxCell id="FfRSLQZAVP2g_bOx8CqB-152" value="" style="aspect=fixed;perimeter=ellipsePerimeter;html=1;align=center;shadow=0;dashed=0;fontColor=#4277BB;labelBackgroundColor=#ffffff;fontSize=12;spacingTop=3;image;image=img/lib/ibm/infrastructure/enterprise_messaging.svg;" parent="FfRSLQZAVP2g_bOx8CqB-143" vertex="1">
          <mxGeometry x="45" y="225" width="35" height="35" as="geometry" />
        </mxCell>
        <mxCell id="FfRSLQZAVP2g_bOx8CqB-150" value="" style="aspect=fixed;perimeter=ellipsePerimeter;html=1;align=center;shadow=0;dashed=0;fontColor=#4277BB;labelBackgroundColor=#ffffff;fontSize=12;spacingTop=3;image;image=img/lib/ibm/infrastructure/enterprise_messaging.svg;" parent="35" vertex="1">
          <mxGeometry x="60" y="140" width="35" height="35" as="geometry" />
        </mxCell>
        <mxCell id="FfRSLQZAVP2g_bOx8CqB-151" value="" style="aspect=fixed;perimeter=ellipsePerimeter;html=1;align=center;shadow=0;dashed=0;fontColor=#4277BB;labelBackgroundColor=#ffffff;fontSize=12;spacingTop=3;image;image=img/lib/ibm/infrastructure/enterprise_messaging.svg;" parent="35" vertex="1">
          <mxGeometry x="60" y="202.5" width="35" height="35" as="geometry" />
        </mxCell>
        <mxCell id="FfRSLQZAVP2g_bOx8CqB-167" value="" style="aspect=fixed;perimeter=ellipsePerimeter;html=1;align=center;shadow=0;dashed=0;fontColor=#4277BB;labelBackgroundColor=#ffffff;fontSize=12;spacingTop=3;image;image=img/lib/ibm/infrastructure/event_feed.svg;" parent="35" vertex="1">
          <mxGeometry x="370" y="190" width="60" height="60" as="geometry" />
        </mxCell>
        <mxCell id="FfRSLQZAVP2g_bOx8CqB-158" value="&lt;div&gt;Service Bus Layer&lt;/div&gt;&lt;div&gt;&lt;br&gt;&lt;/div&gt;" style="shape=mxgraph.ibm.box;prType=classic;fontStyle=0;verticalAlign=top;align=left;spacingLeft=32;spacingTop=4;fillColor=none;rounded=0;whiteSpace=wrap;html=1;strokeColor=#4376BB;strokeWidth=2;dashed=0;container=1;spacing=-4;collapsible=0;expand=0;recursiveResize=0;" parent="35" vertex="1">
          <mxGeometry x="160" y="24" width="170" height="370" as="geometry" />
        </mxCell>
        <mxCell id="FfRSLQZAVP2g_bOx8CqB-157" value="App Connect Enterprise" style="text;html=1;strokeColor=none;fillColor=none;align=center;verticalAlign=middle;whiteSpace=wrap;rounded=0;" parent="FfRSLQZAVP2g_bOx8CqB-158" vertex="1">
          <mxGeometry x="-21.5" y="348" width="201" height="20" as="geometry" />
        </mxCell>
        <mxCell id="FfRSLQZAVP2g_bOx8CqB-180" value="" style="endArrow=classic;html=1;entryX=0.518;entryY=-0.049;entryDx=0;entryDy=0;entryPerimeter=0;" parent="35" target="FfRSLQZAVP2g_bOx8CqB-175" edge="1">
          <mxGeometry width="50" height="50" relative="1" as="geometry">
            <mxPoint x="560" y="350" as="sourcePoint" />
            <mxPoint x="800" y="365" as="targetPoint" />
          </mxGeometry>
        </mxCell>
        <mxCell id="FfRSLQZAVP2g_bOx8CqB-191" value="" style="endArrow=classic;startArrow=classic;html=1;" parent="35" source="FfRSLQZAVP2g_bOx8CqB-187" edge="1">
          <mxGeometry width="50" height="50" relative="1" as="geometry">
            <mxPoint x="450" y="435" as="sourcePoint" />
            <mxPoint x="500" y="385" as="targetPoint" />
          </mxGeometry>
        </mxCell>
        <mxCell id="55" value="" style="swimlane;shadow=0;strokeColor=#4277BB;fillColor=#ffffff;fontColor=#4277BB;align=right;startSize=0;collapsible=0;strokeWidth=3;" parent="2" vertex="1">
          <mxGeometry x="620" y="596" width="570" height="174" as="geometry" />
        </mxCell>
        <mxCell id="60" value="&lt;b&gt;SoR (System Of Records )&lt;/b&gt;" style="text;html=1;align=left;verticalAlign=top;fontColor=#4277BB;shadow=0;dashed=0;strokeColor=none;fillColor=none;labelBackgroundColor=none;fontStyle=0;fontSize=14;spacingLeft=5;" parent="55" vertex="1">
          <mxGeometry x="1" width="231" height="24" as="geometry" />
        </mxCell>
        <mxCell id="Fddl8qkM5L3DqnkjX7zU-104" value="Database" style="aspect=fixed;perimeter=ellipsePerimeter;html=1;align=center;shadow=0;dashed=0;fontColor=#4277BB;labelBackgroundColor=#ffffff;fontSize=12;spacingTop=3;image;image=img/lib/ibm/data/data_services.svg;" parent="55" vertex="1">
          <mxGeometry x="34" y="52" width="60" height="60" as="geometry" />
        </mxCell>
        <mxCell id="Fddl8qkM5L3DqnkjX7zU-105" value="LDAP" style="aspect=fixed;perimeter=ellipsePerimeter;html=1;align=center;shadow=0;dashed=0;fontColor=#4277BB;labelBackgroundColor=#ffffff;fontSize=12;spacingTop=3;image;image=img/lib/ibm/data/data_services.svg;" parent="55" vertex="1">
          <mxGeometry x="146" y="52" width="60" height="60" as="geometry" />
        </mxCell>
        <mxCell id="Fddl8qkM5L3DqnkjX7zU-106" value="Data Sources" style="aspect=fixed;perimeter=ellipsePerimeter;html=1;align=center;shadow=0;dashed=0;fontColor=#4277BB;labelBackgroundColor=#ffffff;fontSize=12;spacingTop=3;image;image=img/lib/ibm/data/data_sources.svg;" parent="55" vertex="1">
          <mxGeometry x="249" y="52" width="60" height="60" as="geometry" />
        </mxCell>
        <mxCell id="FfRSLQZAVP2g_bOx8CqB-187" value="&lt;div&gt;&lt;b&gt;Big Data for Event Logging&lt;/b&gt;&lt;/div&gt;&lt;div&gt;&lt;b&gt;HUMIO&lt;br&gt;&lt;/b&gt;&lt;/div&gt;&lt;div&gt;&lt;b&gt;&lt;br&gt;&lt;/b&gt;&lt;/div&gt;" style="aspect=fixed;perimeter=ellipsePerimeter;html=1;align=center;shadow=0;dashed=0;fontColor=#4277BB;labelBackgroundColor=#ffffff;fontSize=12;spacingTop=3;image;image=img/lib/ibm/data/data_services.svg;" parent="55" vertex="1">
          <mxGeometry x="380" y="52" width="60" height="60" as="geometry" />
        </mxCell>
        <mxCell id="61" style="edgeStyle=elbowEdgeStyle;rounded=0;html=1;labelBackgroundColor=#ffffff;startArrow=classic;startFill=1;startSize=4;endArrow=classic;endFill=1;endSize=4;jettySize=auto;orthogonalLoop=1;strokeColor=#4378BB;strokeWidth=2;fontSize=19;fontColor=#CC99FF;elbow=vertical;exitX=0.008;exitY=0.563;exitDx=0;exitDy=0;exitPerimeter=0;" parent="2" source="An-Oq0qILla8oX6ax3uO-104" edge="1">
          <mxGeometry relative="1" as="geometry">
            <mxPoint x="1190" y="322" as="targetPoint" />
            <Array as="points">
              <mxPoint x="1208" y="322" />
            </Array>
            <mxPoint x="1277.0667409058083" y="322" as="sourcePoint" />
          </mxGeometry>
        </mxCell>
        <mxCell id="63" style="edgeStyle=elbowEdgeStyle;rounded=0;html=1;labelBackgroundColor=#ffffff;startArrow=classic;startFill=1;startSize=4;endArrow=classic;endFill=1;endSize=4;jettySize=auto;orthogonalLoop=1;strokeColor=#4378BB;strokeWidth=2;fontSize=19;fontColor=#CC99FF;elbow=vertical;entryX=1.004;entryY=0.626;entryDx=0;entryDy=0;entryPerimeter=0;" parent="2" source="An-Oq0qILla8oX6ax3uO-103" target="35" edge="1">
          <mxGeometry relative="1" as="geometry">
            <mxPoint x="1207" y="438" as="targetPoint" />
            <Array as="points">
              <mxPoint x="1207" y="438" />
            </Array>
            <mxPoint x="1277" y="438" as="sourcePoint" />
          </mxGeometry>
        </mxCell>
        <mxCell id="Fddl8qkM5L3DqnkjX7zU-99" value="Ministries" style="aspect=fixed;perimeter=ellipsePerimeter;html=1;align=center;shadow=0;dashed=0;fontColor=#4277BB;labelBackgroundColor=#ffffff;fontSize=12;spacingTop=3;image;image=img/lib/ibm/management/information_governance.svg;" parent="2" vertex="1">
          <mxGeometry x="53" y="360" width="60" height="60" as="geometry" />
        </mxCell>
        <mxCell id="Fddl8qkM5L3DqnkjX7zU-101" value="" style="edgeStyle=orthogonalEdgeStyle;rounded=0;orthogonalLoop=1;jettySize=auto;html=1;" parent="2" source="Fddl8qkM5L3DqnkjX7zU-100" edge="1">
          <mxGeometry relative="1" as="geometry">
            <mxPoint x="210" y="370" as="targetPoint" />
          </mxGeometry>
        </mxCell>
        <mxCell id="Fddl8qkM5L3DqnkjX7zU-100" value="Firewall" style="aspect=fixed;perimeter=ellipsePerimeter;html=1;align=center;shadow=0;dashed=0;fontColor=#4277BB;labelBackgroundColor=#ffffff;fontSize=12;spacingTop=3;image;image=img/lib/ibm/security/firewall.svg;" parent="2" vertex="1">
          <mxGeometry x="180" y="260" width="60" height="60" as="geometry" />
        </mxCell>
        <mxCell id="Fddl8qkM5L3DqnkjX7zU-107" value="Ministries" style="aspect=fixed;perimeter=ellipsePerimeter;html=1;align=center;shadow=0;dashed=0;fontColor=#4277BB;labelBackgroundColor=#ffffff;fontSize=12;spacingTop=3;image;image=img/lib/ibm/management/information_governance.svg;" parent="2" vertex="1">
          <mxGeometry x="55" y="468" width="60" height="60" as="geometry" />
        </mxCell>
        <mxCell id="Fddl8qkM5L3DqnkjX7zU-108" value="Ministries" style="aspect=fixed;perimeter=ellipsePerimeter;html=1;align=center;shadow=0;dashed=0;fontColor=#4277BB;labelBackgroundColor=#ffffff;fontSize=12;spacingTop=3;image;image=img/lib/ibm/management/information_governance.svg;" parent="2" vertex="1">
          <mxGeometry x="55" y="570" width="60" height="60" as="geometry" />
        </mxCell>
        <mxCell id="Fddl8qkM5L3DqnkjX7zU-111" value="End Users" style="aspect=fixed;perimeter=ellipsePerimeter;html=1;align=center;shadow=0;dashed=0;image;image=img/lib/ibm/users/device.svg;labelBackgroundColor=#ffffff;strokeColor=#666666;strokeWidth=3;fillColor=#C2952D;gradientColor=none;fontSize=12;fontColor=#4277BB;" parent="2" vertex="1">
          <mxGeometry x="53" y="270" width="60" height="60" as="geometry" />
        </mxCell>
        <mxCell id="An-Oq0qILla8oX6ax3uO-104" value="Vodafone" style="shape=cube;whiteSpace=wrap;html=1;boundedLbl=1;backgroundOutline=1;darkOpacity=0.05;darkOpacity2=0.1;" parent="2" vertex="1">
          <mxGeometry x="1470" y="280" width="120" height="80" as="geometry" />
        </mxCell>
        <mxCell id="An-Oq0qILla8oX6ax3uO-103" value="Ooredo" style="shape=cube;whiteSpace=wrap;html=1;boundedLbl=1;backgroundOutline=1;darkOpacity=0.05;darkOpacity2=0.1;" parent="2" vertex="1">
          <mxGeometry x="1470" y="405" width="120" height="80" as="geometry" />
        </mxCell>
        <mxCell id="FfRSLQZAVP2g_bOx8CqB-124" value="" style="swimlane;shadow=0;strokeColor=#4277BB;fillColor=#ffffff;fontColor=#4277BB;align=right;startSize=0;collapsible=0;strokeWidth=3;" parent="2" vertex="1">
          <mxGeometry x="264" y="200" width="156" height="684" as="geometry" />
        </mxCell>
        <mxCell id="FfRSLQZAVP2g_bOx8CqB-127" value="" style="aspect=fixed;perimeter=ellipsePerimeter;html=1;align=center;shadow=0;dashed=0;fontColor=#4277BB;labelBackgroundColor=#ffffff;fontSize=12;spacingTop=3;image;image=img/lib/ibm/management/api_management.svg;" parent="FfRSLQZAVP2g_bOx8CqB-124" vertex="1">
          <mxGeometry x="26" y="60" width="60" height="60" as="geometry" />
        </mxCell>
        <mxCell id="FfRSLQZAVP2g_bOx8CqB-133" value="Gateway" style="swimlane;fontStyle=0;childLayout=stackLayout;horizontal=1;startSize=26;horizontalStack=0;resizeParent=1;resizeParentMax=0;resizeLast=0;collapsible=1;marginBottom=0;" parent="FfRSLQZAVP2g_bOx8CqB-124" vertex="1">
          <mxGeometry y="360" width="140" height="140" as="geometry" />
        </mxCell>
        <mxCell id="FfRSLQZAVP2g_bOx8CqB-134" value="Message Validation" style="text;strokeColor=none;fillColor=none;align=left;verticalAlign=top;spacingLeft=4;spacingRight=4;overflow=hidden;rotatable=0;points=[[0,0.5],[1,0.5]];portConstraint=eastwest;" parent="FfRSLQZAVP2g_bOx8CqB-133" vertex="1">
          <mxGeometry y="26" width="140" height="26" as="geometry" />
        </mxCell>
        <mxCell id="FfRSLQZAVP2g_bOx8CqB-135" value="Security" style="text;strokeColor=none;fillColor=none;align=left;verticalAlign=top;spacingLeft=4;spacingRight=4;overflow=hidden;rotatable=0;points=[[0,0.5],[1,0.5]];portConstraint=eastwest;" parent="FfRSLQZAVP2g_bOx8CqB-133" vertex="1">
          <mxGeometry y="52" width="140" height="26" as="geometry" />
        </mxCell>
        <mxCell id="FfRSLQZAVP2g_bOx8CqB-136" value="Service Level Monitoring&#xa;&#xa;On Demand Router&#xa;" style="text;strokeColor=none;fillColor=none;align=left;verticalAlign=top;spacingLeft=4;spacingRight=4;overflow=hidden;rotatable=0;points=[[0,0.5],[1,0.5]];portConstraint=eastwest;fontStyle=1" parent="FfRSLQZAVP2g_bOx8CqB-133" vertex="1">
          <mxGeometry y="78" width="140" height="62" as="geometry" />
        </mxCell>
        <mxCell id="FfRSLQZAVP2g_bOx8CqB-130" style="edgeStyle=elbowEdgeStyle;rounded=0;html=1;labelBackgroundColor=#ffffff;startArrow=classic;startFill=1;startSize=4;endArrow=classic;endFill=1;endSize=4;jettySize=auto;orthogonalLoop=1;strokeColor=#4378BB;strokeWidth=2;fontSize=19;fontColor=#CC99FF;elbow=vertical;" parent="2" edge="1">
          <mxGeometry relative="1" as="geometry">
            <mxPoint x="610" y="276" as="targetPoint" />
            <Array as="points">
              <mxPoint x="551" y="275.5" />
            </Array>
            <mxPoint x="530" y="275.5" as="sourcePoint" />
          </mxGeometry>
        </mxCell>
        <mxCell id="FfRSLQZAVP2g_bOx8CqB-131" value="F5 LOADBALANCER" style="aspect=fixed;perimeter=ellipsePerimeter;html=1;align=center;shadow=0;dashed=0;fontColor=#4277BB;labelBackgroundColor=#ffffff;fontSize=12;spacingTop=3;image;image=img/lib/ibm/infrastructure/load_balancing_routing.svg;" parent="2" vertex="1">
          <mxGeometry x="470" y="246" width="60" height="60" as="geometry" />
        </mxCell>
        <mxCell id="FfRSLQZAVP2g_bOx8CqB-142" style="edgeStyle=elbowEdgeStyle;rounded=0;html=1;labelBackgroundColor=#ffffff;startArrow=classic;startFill=1;startSize=4;endArrow=classic;endFill=1;endSize=4;jettySize=auto;orthogonalLoop=1;strokeColor=#4378BB;strokeWidth=2;fontSize=19;fontColor=#CC99FF;elbow=vertical;entryX=0;entryY=0.5;entryDx=0;entryDy=0;" parent="2" target="FfRSLQZAVP2g_bOx8CqB-131" edge="1">
          <mxGeometry relative="1" as="geometry">
            <mxPoint x="490" y="276" as="targetPoint" />
            <Array as="points">
              <mxPoint x="431" y="275.5" />
            </Array>
            <mxPoint x="410" y="275.5" as="sourcePoint" />
          </mxGeometry>
        </mxCell>
        <mxCell id="An-Oq0qILla8oX6ax3uO-112" value="&lt;h1&gt;SMS&lt;span style=&quot;white-space: pre&quot;&gt; &lt;/span&gt;&lt;/h1&gt;&lt;p&gt;A significant drop in the SMS amount that needs to sent.&lt;br&gt;&lt;/p&gt;" style="text;html=1;strokeColor=none;fillColor=none;spacing=5;spacingTop=-20;whiteSpace=wrap;overflow=hidden;rounded=0;" parent="2" vertex="1">
          <mxGeometry x="1260" y="320" width="190" height="80" as="geometry" />
        </mxCell>
        <mxCell id="FfRSLQZAVP2g_bOx8CqB-165" value="&lt;b&gt;Hukoomi Services&lt;/b&gt;" style="text;html=1;strokeColor=none;fillColor=none;align=center;verticalAlign=middle;whiteSpace=wrap;rounded=0;" parent="2" vertex="1">
          <mxGeometry x="1210" y="140" width="180" height="20" as="geometry" />
        </mxCell>
        <mxCell id="FfRSLQZAVP2g_bOx8CqB-175" value="Mobile Foundation Level" style="shape=mxgraph.ibm.box;prType=cloud;fontStyle=0;verticalAlign=top;align=left;spacingLeft=32;spacingTop=4;fillColor=none;rounded=0;whiteSpace=wrap;html=1;strokeColor=#4376BB;strokeWidth=3;dashed=0;container=1;spacing=-4;collapsible=0;expand=0;recursiveResize=0;" parent="2" vertex="1">
          <mxGeometry x="1220" y="560" width="380" height="102" as="geometry" />
        </mxCell>
        <mxCell id="FfRSLQZAVP2g_bOx8CqB-176" value="" style="aspect=fixed;perimeter=ellipsePerimeter;html=1;align=center;shadow=0;dashed=0;fontColor=#4277BB;labelBackgroundColor=#ffffff;fontSize=12;spacingTop=3;image;image=img/lib/ibm/management/api_management.svg;" parent="FfRSLQZAVP2g_bOx8CqB-175" vertex="1">
          <mxGeometry x="40" y="32" width="35" height="35" as="geometry" />
        </mxCell>
        <mxCell id="FfRSLQZAVP2g_bOx8CqB-177" value="&lt;b&gt;Push Notification API&lt;/b&gt;" style="text;html=1;strokeColor=none;fillColor=none;align=center;verticalAlign=middle;whiteSpace=wrap;rounded=0;dashed=1;" parent="2" vertex="1">
          <mxGeometry x="1320" y="580" width="160" height="20" as="geometry" />
        </mxCell>
        <mxCell id="FfRSLQZAVP2g_bOx8CqB-181" value="" style="endArrow=classic;html=1;exitX=0.411;exitY=1.039;exitDx=0;exitDy=0;exitPerimeter=0;" parent="2" source="FfRSLQZAVP2g_bOx8CqB-175" edge="1">
          <mxGeometry width="50" height="50" relative="1" as="geometry">
            <mxPoint x="1360" y="725" as="sourcePoint" />
            <mxPoint x="1400" y="755" as="targetPoint" />
          </mxGeometry>
        </mxCell>
        <mxCell id="FfRSLQZAVP2g_bOx8CqB-182" value="" style="aspect=fixed;perimeter=ellipsePerimeter;html=1;align=center;shadow=0;dashed=0;fontColor=#4277BB;labelBackgroundColor=#ffffff;fontSize=12;spacingTop=3;image;image=img/lib/ibm/management/device_management.svg;" parent="2" vertex="1">
          <mxGeometry x="1260" y="755" width="60" height="60" as="geometry" />
        </mxCell>
        <mxCell id="FfRSLQZAVP2g_bOx8CqB-185" value="" style="aspect=fixed;perimeter=ellipsePerimeter;html=1;align=center;shadow=0;dashed=0;fontColor=#4277BB;labelBackgroundColor=#ffffff;fontSize=12;spacingTop=3;image;image=img/lib/ibm/management/device_management.svg;" parent="2" vertex="1">
          <mxGeometry x="1350" y="755" width="60" height="60" as="geometry" />
        </mxCell>
        <mxCell id="FfRSLQZAVP2g_bOx8CqB-184" value="" style="aspect=fixed;perimeter=ellipsePerimeter;html=1;align=center;shadow=0;dashed=0;fontColor=#4277BB;labelBackgroundColor=#ffffff;fontSize=12;spacingTop=3;image;image=img/lib/ibm/management/device_management.svg;" parent="2" vertex="1">
          <mxGeometry x="1430" y="755" width="60" height="60" as="geometry" />
        </mxCell>
        <mxCell id="FfRSLQZAVP2g_bOx8CqB-183" value="" style="aspect=fixed;perimeter=ellipsePerimeter;html=1;align=center;shadow=0;dashed=0;fontColor=#4277BB;labelBackgroundColor=#ffffff;fontSize=12;spacingTop=3;image;image=img/lib/ibm/management/device_management.svg;" parent="2" vertex="1">
          <mxGeometry x="1520" y="755" width="60" height="60" as="geometry" />
        </mxCell>
        <mxCell id="sYDcP2SI8w6Fc3KPnn15-100" value="Actor" style="shape=umlActor;verticalLabelPosition=bottom;verticalAlign=top;html=1;outlineConnect=0;" vertex="1" parent="2">
          <mxGeometry x="1360" y="850" width="30" height="60" as="geometry" />
        </mxCell>
        <mxCell id="sYDcP2SI8w6Fc3KPnn15-101" value="Actor" style="shape=umlActor;verticalLabelPosition=bottom;verticalAlign=top;html=1;outlineConnect=0;" vertex="1" parent="2">
          <mxGeometry x="1430" y="850" width="20" height="60" as="geometry" />
        </mxCell>
        <mxCell id="sYDcP2SI8w6Fc3KPnn15-102" value="Actor" style="shape=umlActor;verticalLabelPosition=bottom;verticalAlign=top;html=1;outlineConnect=0;" vertex="1" parent="2">
          <mxGeometry x="1476" y="850" width="30" height="60" as="geometry" />
        </mxCell>
        <mxCell id="FfRSLQZAVP2g_bOx8CqB-186" value="Text" style="text;html=1;strokeColor=none;fillColor=none;align=center;verticalAlign=middle;whiteSpace=wrap;rounded=0;dashed=1;" parent="1" vertex="1">
          <mxGeometry x="810" y="250" width="40" height="20" as="geometry" />
        </mxCell>
        <mxCell id="sYDcP2SI8w6Fc3KPnn15-94" value="" style="endArrow=classic;html=1;exitX=1;exitY=0.763;exitDx=0;exitDy=0;exitPerimeter=0;" edge="1" parent="1" source="An-Oq0qILla8oX6ax3uO-103">
          <mxGeometry width="50" height="50" relative="1" as="geometry">
            <mxPoint x="1680" y="550" as="sourcePoint" />
            <mxPoint x="1730" y="500" as="targetPoint" />
          </mxGeometry>
        </mxCell>
        <mxCell id="sYDcP2SI8w6Fc3KPnn15-95" value="Actor" style="shape=umlActor;verticalLabelPosition=bottom;verticalAlign=top;html=1;outlineConnect=0;" vertex="1" parent="1">
          <mxGeometry x="1760" y="368" width="30" height="60" as="geometry" />
        </mxCell>
        <mxCell id="sYDcP2SI8w6Fc3KPnn15-96" value="Actor" style="shape=umlActor;verticalLabelPosition=bottom;verticalAlign=top;html=1;outlineConnect=0;" vertex="1" parent="1">
          <mxGeometry x="1760" y="485" width="30" height="60" as="geometry" />
        </mxCell>
        <mxCell id="sYDcP2SI8w6Fc3KPnn15-97" value="" style="endArrow=classic;html=1;exitX=0;exitY=0;exitDx=120;exitDy=50;exitPerimeter=0;" edge="1" parent="1" source="An-Oq0qILla8oX6ax3uO-104">
          <mxGeometry width="50" height="50" relative="1" as="geometry">
            <mxPoint x="1680" y="418" as="sourcePoint" />
            <mxPoint x="1730" y="390" as="targetPoint" />
          </mxGeometry>
        </mxCell>
        <mxCell id="sYDcP2SI8w6Fc3KPnn15-99" value="Actor" style="shape=umlActor;verticalLabelPosition=bottom;verticalAlign=top;html=1;outlineConnect=0;" vertex="1" parent="1">
          <mxGeometry x="1300" y="880" width="30" height="60" as="geometry" />
        </mxCell>
      </root>
    </mxGraphModel>
  </diagram>
</mxfile>
